Tieng-Font.ufo
<glyph name="A" format="2">
  <advance width="330"/>
  <unicode hex="0041"/>
  <outline>
    <contour>
      <point x="210" y="12" type="line" smooth="yes"/>
      <point x="210" y="5"/>
      <point x="215" y="0"/>
      <point x="222" y="0" type="curve" smooth="yes"/>
      <point x="290" y="0" type="line"/>
      <point x="297" y="0"/>
      <point x="300" y="4"/>
      <point x="300" y="10" type="curve" smooth="yes"/>
      <point x="300" y="590" type="line" smooth="yes"/>
      <point x="300" y="596"/>
      <point x="296" y="600"/>
      <point x="290" y="600" type="curve" smooth="yes"/>
      <point x="210" y="600" type="line"/>
    </contour>
    <contour>
      <point x="300" y="520" type="line"/>
      <point x="300" y="590" type="line" smooth="yes"/>
      <point x="300" y="596"/>
      <point x="296" y="600"/>
      <point x="290" y="600" type="curve" smooth="yes"/>
      <point x="40" y="600" type="line" smooth="yes"/>
      <point x="34" y="600"/>
      <point x="30" y="596"/>
      <point x="30" y="590" type="curve" smooth="yes"/>
      <point x="30" y="12" type="line" smooth="yes"/>
      <point x="30" y="5"/>
      <point x="35" y="0"/>
      <point x="42" y="0" type="curve" smooth="yes"/>
      <point x="110" y="0" type="line" smooth="yes"/>
      <point x="120" y="0"/>
      <point x="120" y="10"/>
      <point x="120" y="10" type="curve"/>
      <point x="120" y="520" type="line"/>
    </contour>
    <contour>
      <point x="210" y="510" type="line"/>
      <point x="210" y="517"/>
      <point x="206" y="520"/>
      <point x="200" y="520" type="curve"/>
      <point x="210" y="520" type="line"/>
    </contour>
    <contour>
      <point x="120" y="520" type="line"/>
      <point x="130" y="520" type="line"/>
      <point x="130" y="520"/>
      <point x="120" y="521"/>
      <point x="120" y="510" type="curve"/>
    </contour>
    <contour>
      <point x="120" y="279"/>
      <point x="120" y="290"/>
      <point x="120" y="290" type="curve"/>
    </contour>
    <contour>
      <point x="120" y="210" type="curve"/>
      <point x="120" y="210"/>
      <point x="135" y="202"/>
    </contour>
    <contour>
      <point x="210" y="171"/>
      <point x="210" y="160"/>
      <point x="210" y="160" type="curve"/>
    </contour>
    <contour>
      <point x="210" y="240" type="curve"/>
      <point x="210" y="240"/>
      <point x="210" y="240"/>
    </contour>
    <contour>
      <point x="210" y="240" type="line"/>
      <point x="120" y="290" type="line"/>
      <point x="120" y="210" type="line"/>
      <point x="210" y="160" type="line"/>
    </contour>
  </outline>
</glyph>
<glyph name="D" format="2">
  <advance width="330"/>
  <unicode hex="0044"/>
  <outline>
    <contour>
      <point x="120" y="520" type="line"/>
      <point x="30" y="520" type="line"/>
      <point x="30" y="574"/>
      <point x="30" y="595"/>
      <point x="30" y="589" type="curve" smooth="yes"/>
      <point x="30" y="80" type="line"/>
      <point x="120" y="80" type="line"/>
    </contour>
    <contour>
      <point x="40" y="600" type="line" smooth="yes"/>
      <point x="34" y="600"/>
      <point x="30" y="596"/>
      <point x="30" y="589" type="curve" smooth="yes"/>
      <point x="30" y="520" type="line"/>
      <point x="300" y="520" type="line"/>
      <point x="300" y="589" type="line" smooth="yes"/>
      <point x="300" y="595"/>
      <point x="296" y="600"/>
      <point x="290" y="600" type="curve" smooth="yes"/>
    </contour>
    <contour>
      <point x="30" y="80" type="curve"/>
      <point x="30" y="10" type="line" smooth="yes"/>
      <point x="30" y="4"/>
      <point x="35" y="0"/>
      <point x="40" y="0" type="curve" smooth="yes"/>
      <point x="120" y="0" type="line"/>
      <point x="120" y="50" type="line"/>
      <point x="210" y="0" type="line"/>
      <point x="290" y="0" type="line" smooth="yes"/>
      <point x="296" y="0"/>
      <point x="300" y="4"/>
      <point x="300" y="10" type="curve" smooth="yes"/>
      <point x="300" y="80" type="line"/>
      <point x="300" y="80"/>
      <point x="300" y="80"/>
    </contour>
    <contour>
      <point x="120" y="520" type="line"/>
      <point x="130" y="520" type="line"/>
      <point x="124" y="521"/>
      <point x="120" y="517"/>
      <point x="120" y="510" type="curve"/>
    </contour>
    <contour>
      <point x="120" y="90" type="line"/>
      <point x="120" y="84"/>
      <point x="124" y="80"/>
      <point x="130" y="80" type="curve"/>
      <point x="120" y="80" type="line"/>
    </contour>
    <contour>
      <point x="210" y="80" type="line"/>
      <point x="300" y="80" type="line"/>
      <point x="300" y="326"/>
      <point x="300" y="562"/>
      <point x="300" y="520" type="curve"/>
      <point x="210" y="520" type="line"/>
    </contour>
    <contour>
      <point x="210" y="80" type="line"/>
      <point x="200" y="80" type="line"/>
      <point x="206" y="79"/>
      <point x="210" y="83"/>
      <point x="210" y="90" type="curve"/>
    </contour>
    <contour>
      <point x="210" y="510" type="line"/>
      <point x="210" y="517"/>
      <point x="206" y="521"/>
      <point x="200" y="520" type="curve"/>
      <point x="210" y="520" type="line"/>
    </contour>
  </outline>
</glyph>
<glyph name="E" format="2">
  <advance width="340"/>
  <unicode hex="0045"/>
  <outline>
    <contour>
      <point x="120" y="600" type="line"/>
      <point x="39" y="600" type="line" smooth="yes"/>
      <point x="33" y="600"/>
      <point x="30" y="596"/>
      <point x="30" y="590" type="curve" smooth="yes"/>
      <point x="30" y="10" type="line" smooth="yes"/>
      <point x="30" y="5"/>
      <point x="34" y="0"/>
      <point x="40" y="0" type="curve" smooth="yes"/>
      <point x="120" y="0" type="line"/>
    </contour>
    <contour>
      <point x="39" y="600" type="line" smooth="yes"/>
      <point x="33" y="600"/>
      <point x="65" y="600"/>
      <point x="120" y="600" type="curve"/>
      <point x="120" y="520" type="line"/>
      <point x="290" y="520" type="line" smooth="yes"/>
      <point x="296" y="520"/>
      <point x="300" y="524"/>
      <point x="300" y="530" type="curve" smooth="yes"/>
      <point x="300" y="590" type="line" smooth="yes"/>
      <point x="300" y="596"/>
      <point x="296" y="600"/>
      <point x="290" y="600" type="curve" smooth="yes"/>
    </contour>
    <contour>
      <point x="120" y="80" type="curve"/>
      <point x="120" y="0" type="line"/>
      <point x="300" y="0" type="line" smooth="yes"/>
      <point x="306" y="0"/>
      <point x="310" y="4"/>
      <point x="310" y="10" type="curve" smooth="yes"/>
      <point x="310" y="70" type="line" smooth="yes"/>
      <point x="310" y="76"/>
      <point x="306" y="80"/>
      <point x="300" y="80" type="curve" smooth="yes"/>
      <point x="217" y="80"/>
      <point x="145" y="80"/>
    </contour>
    <contour>
      <point x="120" y="520" type="line"/>
      <point x="129" y="520" type="line"/>
      <point x="124" y="520"/>
      <point x="120" y="517"/>
      <point x="120" y="510" type="curve"/>
    </contour>
    <contour>
      <point x="120" y="90" type="line"/>
      <point x="120" y="83"/>
      <point x="124" y="80"/>
      <point x="130" y="80" type="curve"/>
      <point x="120" y="80" type="line"/>
    </contour>
    <contour>
      <point x="120" y="410" type="line"/>
      <point x="120" y="330" type="line"/>
      <point x="290" y="330" type="line" smooth="yes"/>
      <point x="295" y="330"/>
      <point x="300" y="334"/>
      <point x="300" y="340" type="curve" smooth="yes"/>
      <point x="300" y="350"/>
      <point x="300" y="370"/>
      <point x="300" y="400" type="curve" smooth="yes"/>
      <point x="300" y="406"/>
      <point x="296" y="410"/>
      <point x="290" y="410" type="curve" smooth="yes"/>
    </contour>
    <contour>
      <point x="120" y="330" type="line"/>
      <point x="120" y="324" type="line"/>
    </contour>
    <contour>
      <point x="120" y="420" type="line"/>
      <point x="120" y="413"/>
      <point x="124" y="410"/>
      <point x="130" y="410" type="curve"/>
      <point x="120" y="410" type="line"/>
    </contour>
    <contour>
      <point x="120" y="330" type="line"/>
      <point x="130" y="330" type="line"/>
      <point x="124" y="330"/>
      <point x="120" y="327"/>
      <point x="120" y="320" type="curve"/>
    </contour>
  </outline>
</glyph>
<glyph name="G" format="2">
  <advance width="400"/>
  <unicode hex="0047"/>
  <outline>
    <contour>
      <point x="40" y="600" type="line" smooth="yes"/>
      <point x="34.0" y="600.0"/>
      <point x="30.0" y="596.0"/>
      <point x="30" y="590" type="curve" smooth="yes"/>
      <point x="30" y="90" type="line"/>
      <point x="120" y="90" type="line"/>
      <point x="120" y="590" type="line" smooth="yes"/>
      <point x="120.0" y="594.0"/>
      <point x="120.0" y="600.0"/>
      <point x="110" y="600" type="curve" smooth="yes"/>
    </contour>
    <contour>
      <point x="331" y="600" type="line"/>
      <point x="120" y="560" type="line"/>
      <point x="119" y="520" type="line"/>
      <point x="345" y="520" type="line" smooth="yes"/>
      <point x="351" y="520"/>
      <point x="355" y="524"/>
      <point x="355" y="530" type="curve" smooth="yes"/>
      <point x="355" y="590" type="line" smooth="yes"/>
      <point x="355" y="596"/>
      <point x="351" y="600"/>
      <point x="345" y="600" type="curve" smooth="yes"/>
    </contour>
    <contour>
      <point x="30" y="90" type="line"/>
      <point x="30" y="20" type="line" smooth="yes"/>
      <point x="30.0" y="14.0"/>
      <point x="34" y="10"/>
      <point x="40" y="10" type="curve" smooth="yes"/>
      <point x="340" y="10" type="line" smooth="yes"/>
      <point x="346" y="10"/>
      <point x="350" y="14"/>
      <point x="350" y="20" type="curve" smooth="yes"/>
      <point x="350" y="90" type="line" smooth="yes"/>
      <point x="260" y="90" type="line" smooth="yes"/>
    </contour>
    <contour>
      <point x="120" y="520" type="line"/>
      <point x="130" y="520" type="line"/>
      <point x="124" y="521"/>
      <point x="120" y="517"/>
      <point x="120" y="510" type="curve"/>
    </contour>
    <contour>
      <point x="120" y="100" type="line"/>
      <point x="120" y="93"/>
      <point x="124" y="89"/>
      <point x="130" y="90" type="curve"/>
      <point x="120" y="90" type="line"/>
    </contour>
    <contour>
      <point x="260" y="280" type="line"/>
      <point x="260" y="90" type="line"/>
      <point x="350" y="90" type="line"/>
      <point x="350" y="270" type="line" smooth="yes"/>
      <point x="350" y="276"/>
      <point x="346" y="280"/>
      <point x="340" y="280" type="curve" smooth="yes"/>
    </contour>
    <contour>
      <point x="200" y="200" type="line"/>
      <point x="260" y="240" type="line"/>
      <point x="280" y="280" type="line"/>
      <point x="200" y="280" type="line" smooth="yes"/>
      <point x="194" y="280"/>
      <point x="190" y="276"/>
      <point x="190" y="270" type="curve" smooth="yes"/>
      <point x="190" y="210" type="line" smooth="yes"/>
      <point x="190" y="204"/>
      <point x="191" y="200"/>
      <point x="200" y="200" type="curve" smooth="yes"/>
    </contour>
  </outline>
</glyph>
<glyph name="H" format="2">
  <advance width="330"/>
  <unicode hex="0048"/>
  <outline>
    <contour>
      <point x="30" y="590" type="line"/>
      <point x="30" y="10" type="line" smooth="yes"/>
      <point x="30" y="0"/>
      <point x="40" y="0"/>
      <point x="40" y="0" type="curve"/>
      <point x="110" y="0" type="line"/>
      <point x="110" y="0"/>
      <point x="120" y="0"/>
      <point x="120" y="10" type="curve" smooth="yes"/>
      <point x="120" y="590" type="line"/>
    </contour>
    <contour>
      <point x="290" y="0" type="curve"/>
      <point x="300" y="0"/>
      <point x="290" y="0"/>
    </contour>
    <contour>
      <point x="210" y="590" type="line"/>
      <point x="210" y="10" type="line" smooth="yes"/>
      <point x="210" y="0"/>
      <point x="220" y="0"/>
      <point x="220" y="0" type="curve"/>
      <point x="290" y="0" type="line"/>
      <point x="290" y="0"/>
      <point x="300" y="0"/>
      <point x="300" y="10" type="curve" smooth="yes"/>
      <point x="300" y="590" type="line"/>
    </contour>
    <contour>
      <point x="120" y="590" type="line"/>
      <point x="120" y="600"/>
      <point x="110" y="600"/>
      <point x="110" y="600" type="curve"/>
      <point x="40" y="600" type="line"/>
      <point x="40" y="600"/>
      <point x="30" y="600"/>
      <point x="30" y="590" type="curve"/>
    </contour>
    <contour>
      <point x="290" y="600" type="curve"/>
      <point x="290" y="600"/>
      <point x="300" y="600"/>
    </contour>
    <contour>
      <point x="300" y="590" type="line"/>
      <point x="300" y="600"/>
      <point x="290" y="600"/>
      <point x="290" y="600" type="curve"/>
      <point x="220" y="600" type="line"/>
      <point x="220" y="600"/>
      <point x="210" y="600"/>
      <point x="210" y="590" type="curve"/>
    </contour>
    <contour>
      <point x="120" y="279"/>
      <point x="120" y="290"/>
      <point x="120" y="290" type="curve"/>
    </contour>
    <contour>
      <point x="120" y="210" type="curve"/>
      <point x="120" y="210"/>
      <point x="135" y="202"/>
    </contour>
    <contour>
      <point x="210" y="171"/>
      <point x="210" y="160"/>
      <point x="210" y="160" type="curve"/>
    </contour>
    <contour>
      <point x="210" y="240" type="curve"/>
      <point x="210" y="240"/>
      <point x="210" y="240"/>
    </contour>
    <contour>
      <point x="210" y="240" type="line"/>
      <point x="120" y="290" type="line"/>
      <point x="120" y="210" type="line"/>
      <point x="210" y="160" type="line"/>
    </contour>
  </outline>
</glyph>
<glyph name="L" format="2">
  <advance width="330"/>
  <unicode hex="004C"/>
  <outline>
    <contour>
      <point x="120" y="590" type="line" smooth="yes"/>
      <point x="120" y="596"/>
      <point x="116" y="600"/>
      <point x="110" y="600" type="curve" smooth="yes"/>
      <point x="40" y="600" type="line" smooth="yes"/>
      <point x="34" y="600"/>
      <point x="30.0" y="596.0"/>
      <point x="30" y="590" type="curve" smooth="yes"/>
      <point x="30" y="10" type="line" smooth="yes"/>
      <point x="30.0" y="4.0"/>
      <point x="34.0" y="0.0"/>
      <point x="40" y="0" type="curve" smooth="yes"/>
      <point x="120" y="0" type="line"/>
    </contour>
    <contour>
      <point x="30" y="80" type="line"/>
      <point x="30" y="10" type="line" smooth="yes"/>
      <point x="30" y="4"/>
      <point x="34.0" y="0.0"/>
      <point x="40" y="0" type="curve" smooth="yes"/>
      <point x="290" y="0" type="line" smooth="yes"/>
      <point x="296.0" y="0.0"/>
      <point x="300.0" y="4.0"/>
      <point x="300" y="10" type="curve" smooth="yes"/>
      <point x="300" y="70" type="line" smooth="yes"/>
      <point x="300.0" y="76.0"/>
      <point x="296" y="80"/>
      <point x="290" y="80" type="curve" smooth="yes"/>
    </contour>
    <contour>
      <point x="120" y="90" type="line"/>
      <point x="120" y="83"/>
      <point x="124" y="80"/>
      <point x="130" y="80" type="curve"/>
      <point x="120" y="80" type="line"/>
    </contour>
  </outline>
</glyph>
<glyph name="M" format="2">
  <advance width="510"/>
  <unicode hex="004D"/>
  <outline>
    <contour>
      <point x="390" y="10" type="line" smooth="yes"/>
      <point x="390" y="4"/>
      <point x="395" y="0"/>
      <point x="400" y="0" type="curve" smooth="yes"/>
      <point x="470" y="0" type="line" smooth="yes"/>
      <point x="475" y="0"/>
      <point x="480" y="5"/>
      <point x="480" y="10" type="curve" smooth="yes"/>
      <point x="480" y="126"/>
      <point x="480" y="333"/>
      <point x="480" y="520" type="curve"/>
      <point x="390" y="520" type="line"/>
    </contour>
    <contour>
      <point x="480" y="520" type="curve"/>
      <point x="480" y="520" type="line"/>
      <point x="480" y="521"/>
      <point x="391" y="600"/>
      <point x="391" y="600" type="curve" smooth="yes"/>
      <point x="290" y="600" type="line"/>
      <point x="210" y="521" type="line"/>
      <point x="210" y="520" type="line"/>
      <point x="210" y="520"/>
      <point x="210" y="520"/>
    </contour>
    <contour>
      <point x="390" y="510" type="line"/>
      <point x="390" y="516"/>
      <point x="386" y="520"/>
      <point x="380" y="520" type="curve"/>
      <point x="390" y="520" type="line"/>
    </contour>
    <contour>
      <point x="300" y="520" type="line"/>
      <point x="210" y="520" type="line" smooth="yes"/>
      <point x="210" y="520"/>
      <point x="210" y="10"/>
      <point x="210" y="10" type="curve" smooth="yes"/>
      <point x="210" y="6"/>
      <point x="215" y="0"/>
      <point x="220" y="0" type="curve" smooth="yes"/>
      <point x="290" y="0" type="line" smooth="yes"/>
      <point x="294" y="0"/>
      <point x="300" y="4"/>
      <point x="300" y="10" type="curve" smooth="yes"/>
    </contour>
    <contour>
      <point x="300" y="520" type="line"/>
      <point x="310" y="520" type="line"/>
      <point x="304" y="520"/>
      <point x="300" y="516"/>
      <point x="300" y="510" type="curve"/>
    </contour>
    <contour>
      <point x="300" y="520" type="line"/>
      <point x="210" y="520" type="line"/>
    </contour>
    <contour>
      <point x="300" y="520" type="curve"/>
      <point x="300" y="520" type="line"/>
      <point x="300" y="521"/>
      <point x="211" y="600"/>
      <point x="211" y="600" type="curve" smooth="yes"/>
      <point x="110" y="600" type="line"/>
      <point x="30" y="521" type="line"/>
      <point x="30" y="520" type="line"/>
      <point x="30" y="520"/>
      <point x="30" y="520"/>
    </contour>
    <contour>
      <point x="210" y="510" type="line"/>
      <point x="210" y="516"/>
      <point x="206" y="520"/>
      <point x="200" y="520" type="curve"/>
      <point x="210" y="520" type="line"/>
    </contour>
    <contour>
      <point x="120" y="520" type="line"/>
      <point x="30" y="520" type="line" smooth="yes"/>
      <point x="30" y="520"/>
      <point x="30" y="65"/>
      <point x="30" y="10" type="curve" smooth="yes"/>
      <point x="30" y="5"/>
      <point x="35" y="0"/>
      <point x="40" y="0" type="curve" smooth="yes"/>
      <point x="110" y="0" type="line" smooth="yes"/>
      <point x="114" y="0"/>
      <point x="120" y="4"/>
      <point x="120" y="10" type="curve" smooth="yes"/>
    </contour>
    <contour>
      <point x="120" y="520" type="line"/>
      <point x="130" y="520" type="line"/>
      <point x="124" y="520"/>
      <point x="120" y="516"/>
      <point x="120" y="510" type="curve"/>
    </contour>
  </outline>
</glyph>
<glyph name="Q" format="2">
  <advance width="330"/>
  <unicode hex="0051"/>
  <outline>
    <contour>
      <point x="210" y="520" type="line"/>
      <point x="210" y="80" type="line"/>
      <point x="300" y="80" type="line"/>
      <point x="300" y="590" type="line" smooth="yes"/>
      <point x="300" y="600"/>
      <point x="300" y="520"/>
      <point x="300" y="520" type="curve"/>
    </contour>
    <contour>
      <point x="259" y="600" type="line"/>
      <point x="40" y="600" type="line" smooth="yes"/>
      <point x="30" y="600"/>
      <point x="30" y="590"/>
      <point x="30" y="590" type="curve"/>
      <point x="30" y="520" type="line"/>
      <point x="30" y="520"/>
      <point x="299" y="520"/>
      <point x="300" y="520" type="curve"/>
      <point x="300" y="560" type="line"/>
    </contour>
    <contour>
      <point x="300" y="80" type="line"/>
      <point x="30" y="80"/>
      <point x="30" y="80"/>
      <point x="30" y="80" type="curve"/>
      <point x="30" y="39" type="line"/>
      <point x="70" y="0" type="line"/>
      <point x="130" y="0" type="line"/>
      <point x="160" y="-80" type="line"/>
      <point x="249" y="-80" type="line"/>
      <point x="220" y="0" type="line"/>
      <point x="290" y="0" type="line" smooth="yes"/>
      <point x="300" y="0"/>
      <point x="300" y="10"/>
      <point x="300" y="10" type="curve"/>
    </contour>
    <contour>
      <point x="210" y="520" type="line"/>
      <point x="210" y="510" type="line"/>
      <point x="210" y="520"/>
      <point x="200" y="520"/>
      <point x="200" y="520" type="curve"/>
    </contour>
    <contour>
      <point x="210" y="90" type="curve"/>
      <point x="210" y="80" type="line"/>
      <point x="200" y="80" type="line"/>
      <point x="200" y="80"/>
      <point x="210" y="80"/>
    </contour>
    <contour>
      <point x="120" y="80" type="curve"/>
      <point x="120" y="520" type="line"/>
      <point x="30" y="520" type="line"/>
      <point x="30" y="520"/>
      <point x="30" y="490"/>
      <point x="30" y="80" type="curve" smooth="yes"/>
      <point x="30" y="79"/>
      <point x="120" y="80"/>
    </contour>
    <contour>
      <point x="120" y="80" type="line"/>
      <point x="120" y="90" type="line"/>
      <point x="120" y="80"/>
      <point x="130" y="80"/>
      <point x="130" y="80" type="curve"/>
    </contour>
    <contour>
      <point x="120" y="510" type="curve"/>
      <point x="120" y="520" type="line"/>
      <point x="130" y="520" type="line"/>
      <point x="130" y="520"/>
      <point x="120" y="520"/>
    </contour>
  </outline>
</glyph>
<glyph name="V" format="2">
  <advance width="330"/>
  <unicode hex="0056"/>
  <outline>
    <contour>
      <point x="120" y="590" type="line" smooth="yes"/>
      <point x="120.0" y="596.0"/>
      <point x="115" y="600"/>
      <point x="110" y="600" type="curve" smooth="yes"/>
      <point x="40" y="600" type="line" smooth="yes"/>
      <point x="35" y="600"/>
      <point x="30" y="595"/>
      <point x="30" y="590" type="curve" smooth="yes"/>
      <point x="30" y="474"/>
      <point x="30" y="267"/>
      <point x="30" y="80" type="curve"/>
      <point x="120" y="80" type="line"/>
    </contour>
    <contour>
      <point x="30" y="80" type="curve"/>
      <point x="30" y="80" type="line"/>
      <point x="30" y="79"/>
      <point x="119" y="0"/>
      <point x="119" y="0" type="curve" smooth="yes"/>
      <point x="220" y="0" type="line"/>
      <point x="300" y="79" type="line"/>
      <point x="300" y="80" type="line"/>
      <point x="300" y="80"/>
      <point x="300" y="80"/>
    </contour>
    <contour>
      <point x="120" y="90" type="line"/>
      <point x="120" y="84"/>
      <point x="124" y="80"/>
      <point x="130" y="80" type="curve"/>
      <point x="120" y="80" type="line"/>
    </contour>
    <contour>
      <point x="210" y="80" type="line"/>
      <point x="300" y="80" type="line" smooth="yes"/>
      <point x="300" y="326"/>
      <point x="300.0" y="535.0"/>
      <point x="300" y="590" type="curve" smooth="yes"/>
      <point x="300.0" y="595.0"/>
      <point x="295.0" y="600.0"/>
      <point x="290" y="600" type="curve" smooth="yes"/>
      <point x="220" y="600" type="line" smooth="yes"/>
      <point x="216.0" y="600.0"/>
      <point x="210.0" y="596.0"/>
      <point x="210" y="590" type="curve" smooth="yes"/>
    </contour>
    <contour>
      <point x="210" y="80" type="line"/>
      <point x="200" y="80" type="line"/>
      <point x="206" y="80"/>
      <point x="210" y="84"/>
      <point x="210" y="90" type="curve"/>
    </contour>
  </outline>
</glyph>
<glyph name="c" format="2">
  <advance width="330"/>
  <unicode hex="0063"/>
  <outline>
    <contour>
      <point x="40" y="420" type="line"/>
      <point x="40" y="420"/>
      <point x="30" y="420"/>
      <point x="30" y="410" type="curve" smooth="yes"/>
      <point x="30" y="80" type="line"/>
      <point x="120" y="80" type="line"/>
      <point x="120" y="410" type="line"/>
      <point x="120" y="413"/>
      <point x="120" y="420"/>
      <point x="110" y="420" type="curve" smooth="yes"/>
    </contour>
    <contour>
      <point x="240" y="420" type="line"/>
      <point x="120" y="380" type="line"/>
      <point x="119" y="340" type="line"/>
      <point x="290" y="340" type="line" smooth="yes"/>
      <point x="300" y="340"/>
      <point x="300" y="350"/>
      <point x="300" y="350" type="curve"/>
      <point x="300" y="410" type="line"/>
      <point x="300" y="410"/>
      <point x="300" y="420"/>
      <point x="290" y="420" type="curve" smooth="yes"/>
    </contour>
    <contour>
      <point x="30" y="80" type="curve"/>
      <point x="30" y="10" type="line"/>
      <point x="30" y="10"/>
      <point x="30" y="0"/>
      <point x="40" y="0" type="curve" smooth="yes"/>
      <point x="290" y="0" type="line" smooth="yes"/>
      <point x="300" y="0"/>
      <point x="300" y="10"/>
      <point x="300" y="10" type="curve"/>
      <point x="300" y="70" type="line"/>
      <point x="300" y="70"/>
      <point x="300" y="80"/>
      <point x="290" y="80" type="curve" smooth="yes"/>
      <point x="30" y="80"/>
      <point x="30" y="80"/>
    </contour>
    <contour>
      <point x="120" y="340" type="line"/>
      <point x="130" y="340" type="line"/>
      <point x="130" y="340"/>
      <point x="120" y="341"/>
      <point x="120" y="330" type="curve"/>
    </contour>
    <contour>
      <point x="120" y="90" type="line"/>
      <point x="120" y="79"/>
      <point x="130" y="80"/>
      <point x="130" y="80" type="curve"/>
      <point x="120" y="80" type="line"/>
    </contour>
    <contour>
      <point x="241" y="340" type="line"/>
    </contour>
  </outline>
</glyph>
<glyph name="g" format="2">
  <advance width="330"/>
  <unicode hex="0067"/>
  <outline>
    <contour>
      <point x="290" y="420" type="curve" smooth="yes"/>
      <point x="220" y="420" type="line" smooth="yes"/>
      <point x="210.0" y="420.0"/>
      <point x="210" y="413"/>
      <point x="210" y="410" type="curve" smooth="yes"/>
      <point x="210" y="90" type="line"/>
      <point x="300" y="90" type="line"/>
      <point x="300" y="410" type="line" smooth="yes"/>
      <point x="300" y="416"/>
      <point x="296.0" y="420.0"/>
    </contour>
    <contour>
      <point x="120" y="420" type="line"/>
      <point x="40" y="420" type="line" smooth="yes"/>
      <point x="34" y="420"/>
      <point x="30.0" y="416.0"/>
      <point x="30" y="410" type="curve" smooth="yes"/>
      <point x="30" y="340" type="line" smooth="yes"/>
      <point x="30" y="90" type="line" smooth="yes"/>
      <point x="120" y="90" type="line"/>
      <point x="120" y="340" type="line"/>
      <point x="210" y="340" type="line" smooth="yes"/>
      <point x="210" y="340" type="line"/>
      <point x="210" y="380" type="line"/>
    </contour>
    <contour>
      <point x="300" y="90" type="line"/>
      <point x="30" y="90" type="line"/>
      <point x="30" y="20" type="line" smooth="yes"/>
      <point x="30" y="14"/>
      <point x="34" y="10"/>
      <point x="40" y="10" type="curve" smooth="yes"/>
      <point x="210" y="10" type="line"/>
      <point x="210" y="-150" type="line"/>
      <point x="300" y="-150" type="line"/>
      <point x="300" y="10" type="line"/>
    </contour>
    <contour>
      <point x="210" y="340" type="line"/>
      <point x="210" y="330" type="line"/>
      <point x="210" y="337"/>
      <point x="206" y="340"/>
      <point x="200" y="340" type="curve"/>
    </contour>
    <contour>
      <point x="210" y="100" type="curve"/>
      <point x="210" y="90" type="line"/>
      <point x="200" y="90" type="line"/>
      <point x="206" y="90"/>
      <point x="210" y="93"/>
    </contour>
    <contour>
      <point x="119" y="340" type="move"/>
      <point x="120" y="340" type="line"/>
    </contour>
    <contour>
      <point x="120" y="340" type="line"/>
      <point x="130" y="340" type="line"/>
      <point x="124" y="340"/>
      <point x="120" y="337"/>
      <point x="120" y="330" type="curve"/>
    </contour>
    <contour>
      <point x="120" y="100" type="line"/>
      <point x="120" y="93"/>
      <point x="124" y="90"/>
      <point x="130" y="90" type="curve"/>
      <point x="120" y="90" type="line"/>
    </contour>
    <contour>
      <point x="210" y="-150" type="line"/>
    </contour>
    <contour>
      <point x="210" y="10" type="move"/>
      <point x="211" y="10" type="line"/>
    </contour>
    <contour>
      <point x="210" y="10" type="line"/>
      <point x="210" y="0" type="line"/>
      <point x="210" y="7"/>
      <point x="206" y="10"/>
      <point x="200" y="10" type="curve"/>
    </contour>
    <contour>
      <point x="210" y="-150" type="move"/>
      <point x="300" y="-150" type="line"/>
    </contour>
    <contour>
      <point x="300" y="-150" type="line"/>
      <point x="210" y="-150" type="line"/>
      <point x="40" y="-120" type="line"/>
      <point x="30" y="-120"/>
      <point x="30" y="-130"/>
      <point x="30" y="-130" type="curve"/>
      <point x="30" y="-190" type="line"/>
      <point x="30" y="-190"/>
      <point x="30" y="-200"/>
      <point x="40" y="-200" type="curve"/>
      <point x="210" y="-200" type="line"/>
      <point x="260" y="-200" type="line"/>
      <point x="300" y="-150" type="line"/>
    </contour>
  </outline>
</glyph>
<glyph name="h" format="2">
  <advance width="330"/>
  <unicode hex="0068"/>
  <outline>
    <contour>
      <point x="30" y="590" type="line"/>
      <point x="30" y="10" type="line" smooth="yes"/>
      <point x="30.0" y="4.0"/>
      <point x="34.0" y="0.0"/>
      <point x="40" y="0" type="curve" smooth="yes"/>
      <point x="110" y="0" type="line" smooth="yes"/>
      <point x="116.0" y="0.0"/>
      <point x="120.0" y="4.0"/>
      <point x="120" y="10" type="curve" smooth="yes"/>
      <point x="120" y="590" type="line"/>
    </contour>
    <contour>
      <point x="290" y="0" type="curve"/>
      <point x="296" y="0"/>
      <point x="296" y="0"/>
    </contour>
    <contour>
      <point x="120" y="340" type="line" smooth="yes"/>
      <point x="120.0" y="341.0"/>
      <point x="120" y="337"/>
      <point x="120" y="330" type="curve"/>
    </contour>
    <contour>
      <point x="210" y="420" type="line"/>
      <point x="210" y="10" type="line"/>
      <point x="210.0" y="4.0"/>
      <point x="214.0" y="0.0"/>
      <point x="220" y="0" type="curve" smooth="yes"/>
      <point x="290" y="0" type="line" smooth="yes"/>
      <point x="296.0" y="0.0"/>
      <point x="300.0" y="4.0"/>
      <point x="300" y="10" type="curve" smooth="yes"/>
      <point x="300" y="410" type="line" smooth="yes"/>
      <point x="300.0" y="416.0"/>
      <point x="296.0" y="420.0"/>
      <point x="290" y="420" type="curve" smooth="yes"/>
    </contour>
    <contour>
      <point x="210" y="330" type="line"/>
      <point x="210" y="337"/>
      <point x="206" y="341"/>
      <point x="200" y="340" type="curve"/>
      <point x="210" y="340" type="line"/>
    </contour>
    <contour>
      <point x="210" y="420" type="line"/>
      <point x="120" y="381" type="line"/>
      <point x="120" y="340" type="line"/>
      <point x="210" y="340" type="line"/>
    </contour>
    <contour>
      <point x="120" y="590" type="line"/>
      <point x="120" y="596"/>
      <point x="116.0" y="600.0"/>
      <point x="110" y="600" type="curve" smooth="yes"/>
      <point x="40" y="600" type="line" smooth="yes"/>
      <point x="34.0" y="600.0"/>
      <point x="30" y="596"/>
      <point x="30" y="590" type="curve"/>
    </contour>
  </outline>
</glyph>
<glyph name="i" format="2">
  <advance width="130"/>
  <unicode hex="0069"/>
  <outline>
    <contour>
      <point x="110" y="410" type="line" smooth="yes"/>
      <point x="110" y="416"/>
      <point x="106" y="420"/>
      <point x="99" y="420" type="curve" smooth="yes"/>
      <point x="30" y="420" type="line" smooth="yes"/>
      <point x="24" y="420"/>
      <point x="20" y="416"/>
      <point x="20" y="410" type="curve" smooth="yes"/>
      <point x="20" y="10" type="line" smooth="yes"/>
      <point x="20" y="5"/>
      <point x="23" y="0"/>
      <point x="29" y="0" type="curve" smooth="yes"/>
      <point x="100" y="0" type="line" smooth="yes"/>
      <point x="105" y="0"/>
      <point x="110" y="3"/>
      <point x="110" y="10" type="curve" smooth="yes"/>
    </contour>
    <contour>
      <point x="110" y="589" type="line" smooth="yes"/>
      <point x="110" y="595"/>
      <point x="106" y="600"/>
      <point x="100" y="600" type="curve" smooth="yes"/>
      <point x="30" y="600" type="line" smooth="yes"/>
      <point x="24" y="600"/>
      <point x="20" y="596"/>
      <point x="20" y="590" type="curve" smooth="yes"/>
      <point x="20" y="530" type="line" smooth="yes"/>
      <point x="20" y="524"/>
      <point x="24" y="520"/>
      <point x="30" y="520" type="curve" smooth="yes"/>
      <point x="100" y="520" type="line" smooth="yes"/>
      <point x="106" y="520"/>
      <point x="110" y="525"/>
      <point x="110" y="533" type="curve" smooth="yes"/>
    </contour>
  </outline>
</glyph>
<glyph name="j" format="2">
  <advance width="180"/>
  <unicode hex="006A"/>
  <outline>
    <contour>
      <point x="130" y="420" type="curve" smooth="yes"/>
      <point x="60" y="420" type="line" smooth="yes"/>
      <point x="50" y="420"/>
      <point x="50" y="413"/>
      <point x="50" y="410" type="curve"/>
      <point x="50" y="210" type="line"/>
      <point x="140" y="210" type="line"/>
      <point x="140" y="410" type="line" smooth="yes"/>
      <point x="140" y="416"/>
      <point x="136" y="420"/>
    </contour>
    <contour>
      <point x="140" y="210" type="line"/>
      <point x="50" y="210" type="line"/>
      <point x="50" y="-150" type="line"/>
      <point x="140" y="-150" type="line"/>
    </contour>
    <contour>
      <point x="50" y="-150" type="move"/>
      <point x="140" y="-150" type="line"/>
    </contour>
    <contour>
      <point x="50" y="-150" type="line"/>
    </contour>
    <contour>
      <point x="50" y="-150" type="move"/>
      <point x="140" y="-150" type="line"/>
    </contour>
    <contour>
      <point x="140" y="-150" type="line"/>
      <point x="50" y="-150" type="line"/>
      <point x="-120" y="-110" type="line"/>
      <point x="-130" y="-110"/>
      <point x="-130" y="-120"/>
      <point x="-130" y="-120" type="curve"/>
      <point x="-130" y="-190" type="line"/>
      <point x="-130" y="-190"/>
      <point x="-130" y="-200"/>
      <point x="-120" y="-200" type="curve" smooth="yes"/>
      <point x="100" y="-200" type="line"/>
      <point x="140" y="-150" type="line"/>
    </contour>
    <contour>
      <point x="140" y="589" type="line" smooth="yes"/>
      <point x="140" y="595"/>
      <point x="136" y="600"/>
      <point x="130" y="600" type="curve" smooth="yes"/>
      <point x="60" y="600" type="line" smooth="yes"/>
      <point x="54" y="600"/>
      <point x="50" y="596"/>
      <point x="50" y="590" type="curve" smooth="yes"/>
      <point x="50" y="530" type="line" smooth="yes"/>
      <point x="50" y="524"/>
      <point x="54" y="520"/>
      <point x="60" y="520" type="curve" smooth="yes"/>
      <point x="130" y="520" type="line" smooth="yes"/>
      <point x="136" y="520"/>
      <point x="140" y="525"/>
      <point x="140" y="533" type="curve" smooth="yes"/>
    </contour>
  </outline>
</glyph>
<glyph name="m" format="2">
  <advance width="510"/>
  <unicode hex="006D"/>
  <outline>
    <contour>
      <point x="40" y="420" type="line"/>
      <point x="40" y="420"/>
      <point x="30" y="420"/>
      <point x="30" y="410" type="curve" smooth="yes"/>
      <point x="30" y="90" type="line"/>
      <point x="120" y="90" type="line"/>
      <point x="120" y="410" type="line" smooth="yes"/>
      <point x="120" y="413"/>
      <point x="120" y="420"/>
      <point x="110" y="420" type="curve" smooth="yes"/>
    </contour>
    <contour>
      <point x="240" y="420" type="line"/>
      <point x="120" y="380" type="line"/>
      <point x="120" y="380"/>
      <point x="120" y="340"/>
      <point x="120" y="340" type="curve"/>
      <point x="300" y="340" type="line"/>
      <point x="300" y="340"/>
      <point x="300" y="409"/>
      <point x="300" y="410" type="curve"/>
      <point x="300" y="410"/>
      <point x="300" y="420"/>
      <point x="290" y="420" type="curve" smooth="yes"/>
    </contour>
    <contour>
      <point x="30" y="10" type="curve"/>
      <point x="30" y="10"/>
      <point x="30" y="0"/>
      <point x="40" y="0" type="curve" smooth="yes"/>
      <point x="110" y="0" type="line" smooth="yes"/>
      <point x="120" y="0"/>
      <point x="120" y="10"/>
      <point x="120" y="10" type="curve"/>
      <point x="120" y="90" type="line"/>
      <point x="30" y="90" type="line"/>
      <point x="30" y="89"/>
      <point x="30" y="10"/>
    </contour>
    <contour>
      <point x="120" y="340" type="line"/>
      <point x="130" y="340" type="line"/>
      <point x="130" y="340"/>
      <point x="120" y="341"/>
      <point x="120" y="330" type="curve"/>
    </contour>
    <contour>
      <point x="240" y="420" type="line"/>
    </contour>
    <contour>
      <point x="210" y="340" type="line"/>
      <point x="300" y="340" type="line"/>
    </contour>
    <contour>
      <point x="210" y="10" type="curve"/>
      <point x="210" y="10"/>
      <point x="210" y="0"/>
      <point x="220" y="0" type="curve" smooth="yes"/>
      <point x="290" y="0" type="line" smooth="yes"/>
      <point x="300" y="0"/>
      <point x="300" y="10"/>
      <point x="300" y="10" type="curve"/>
      <point x="300" y="340" type="line"/>
      <point x="210" y="340" type="line"/>
      <point x="210" y="339"/>
      <point x="210" y="10"/>
    </contour>
    <contour>
      <point x="210" y="340" type="line"/>
      <point x="210" y="330" type="line"/>
      <point x="210" y="341"/>
      <point x="200" y="340"/>
      <point x="200" y="340" type="curve"/>
    </contour>
    <contour>
      <point x="240" y="420" type="curve"/>
      <point x="120" y="380" type="line"/>
      <point x="120" y="380"/>
      <point x="240" y="420"/>
    </contour>
    <contour>
      <point x="120" y="330"/>
      <point x="120" y="341"/>
      <point x="120" y="330" type="curve"/>
    </contour>
    <contour>
      <point x="210" y="340" type="line"/>
    </contour>
    <contour>
      <point x="210" y="340" type="move"/>
    </contour>
    <contour>
      <point x="210" y="340" type="line"/>
      <point x="210" y="330" type="line"/>
      <point x="210" y="341"/>
      <point x="200" y="340"/>
      <point x="200" y="340" type="curve"/>
    </contour>
    <contour>
      <point x="420" y="420" type="line"/>
      <point x="300" y="380" type="line"/>
      <point x="300" y="380"/>
      <point x="300" y="340"/>
      <point x="300" y="340" type="curve"/>
      <point x="480" y="340" type="line"/>
      <point x="480" y="340"/>
      <point x="480" y="409"/>
      <point x="480" y="410" type="curve"/>
      <point x="480" y="410"/>
      <point x="480" y="420"/>
      <point x="470" y="420" type="curve" smooth="yes"/>
    </contour>
    <contour>
      <point x="300" y="340" type="line"/>
      <point x="310" y="340" type="line"/>
      <point x="310" y="340"/>
      <point x="300" y="341"/>
      <point x="300" y="330" type="curve"/>
    </contour>
    <contour>
      <point x="420" y="420" type="line"/>
    </contour>
    <contour>
      <point x="390" y="340" type="line"/>
      <point x="480" y="340" type="line"/>
    </contour>
    <contour>
      <point x="390" y="10" type="curve"/>
      <point x="390" y="10"/>
      <point x="390" y="0"/>
      <point x="400" y="0" type="curve" smooth="yes"/>
      <point x="470" y="0" type="line" smooth="yes"/>
      <point x="480" y="0"/>
      <point x="480" y="10"/>
      <point x="480" y="10" type="curve"/>
      <point x="480" y="340" type="line"/>
      <point x="390" y="340" type="line"/>
      <point x="390" y="339"/>
      <point x="390" y="10"/>
    </contour>
    <contour>
      <point x="390" y="340" type="line"/>
      <point x="390" y="330" type="line"/>
      <point x="390" y="341"/>
      <point x="380" y="340"/>
      <point x="380" y="340" type="curve"/>
    </contour>
    <contour>
      <point x="420" y="420" type="curve"/>
      <point x="300" y="380" type="line"/>
      <point x="300" y="380"/>
      <point x="420" y="420"/>
    </contour>
    <contour>
      <point x="300" y="330"/>
      <point x="300" y="341"/>
      <point x="300" y="330" type="curve"/>
    </contour>
    <contour>
      <point x="390" y="340" type="line"/>
    </contour>
    <contour>
      <point x="390" y="340" type="move"/>
    </contour>
    <contour>
      <point x="390" y="340" type="line"/>
      <point x="390" y="330" type="line"/>
      <point x="390" y="341"/>
      <point x="380" y="340"/>
      <point x="380" y="340" type="curve"/>
    </contour>
  </outline>
</glyph>
<glyph name="p" format="2">
  <advance width="330"/>
  <unicode hex="0070"/>
  <outline>
    <contour>
      <point x="120" y="-191" type="line"/>
      <point x="120" y="409" type="line" smooth="yes"/>
      <point x="120" y="415"/>
      <point x="115" y="420"/>
      <point x="109" y="420" type="curve" smooth="yes"/>
      <point x="101" y="420"/>
      <point x="69" y="420"/>
      <point x="40" y="420" type="curve" smooth="yes"/>
      <point x="34" y="420"/>
      <point x="30" y="416"/>
      <point x="30" y="410" type="curve" smooth="yes"/>
      <point x="30" y="-191" type="line"/>
    </contour>
    <contour>
      <point x="290" y="420" type="curve"/>
      <point x="296" y="420"/>
      <point x="296" y="420"/>
    </contour>
    <contour>
      <point x="120" y="-10" type="curve"/>
      <point x="120" y="0" type="line"/>
      <point x="120" y="-2"/>
      <point x="120" y="-6"/>
    </contour>
    <contour>
      <point x="120" y="80" type="curve"/>
      <point x="120" y="90" type="line"/>
      <point x="120" y="86"/>
      <point x="120" y="82"/>
    </contour>
    <contour>
      <point x="300" y="410" type="line" smooth="yes"/>
      <point x="300" y="416"/>
      <point x="296" y="420"/>
      <point x="290" y="420" type="curve" smooth="yes"/>
      <point x="210" y="420" type="line"/>
      <point x="210" y="0" type="line"/>
      <point x="260" y="0" type="line"/>
      <point x="300" y="40" type="line"/>
    </contour>
    <contour>
      <point x="210" y="90" type="curve"/>
      <point x="210" y="80" type="line"/>
      <point x="200" y="80" type="line"/>
      <point x="206" y="80"/>
      <point x="210" y="83"/>
    </contour>
    <contour>
      <point x="210" y="0" type="line"/>
      <point x="210" y="80" type="line"/>
      <point x="120" y="80" type="line"/>
      <point x="120" y="0" type="line"/>
    </contour>
    <contour>
      <point x="30" y="-191" type="line"/>
      <point x="30" y="-197"/>
      <point x="34" y="-200"/>
      <point x="40" y="-200" type="curve" smooth="yes"/>
      <point x="110" y="-200" type="line" smooth="yes"/>
      <point x="116" y="-200"/>
      <point x="120" y="-197"/>
      <point x="120" y="-191" type="curve"/>
    </contour>
    <contour>
      <point x="210" y="430" type="curve"/>
      <point x="210" y="420" type="line"/>
      <point x="210" y="423"/>
      <point x="210" y="427"/>
    </contour>
    <contour>
      <point x="210" y="340" type="curve"/>
      <point x="210" y="330" type="line"/>
      <point x="210" y="334"/>
      <point x="210" y="338"/>
    </contour>
    <contour>
      <point x="120" y="330" type="curve"/>
      <point x="120" y="340" type="line"/>
      <point x="130" y="340" type="line"/>
      <point x="124" y="340"/>
      <point x="120" y="337"/>
    </contour>
    <contour>
      <point x="120" y="380" type="line"/>
      <point x="120" y="340" type="line"/>
      <point x="210" y="340" type="line"/>
      <point x="210" y="420" type="line"/>
    </contour>
    <contour>
      <point x="120" y="90" type="line"/>
      <point x="120" y="83"/>
      <point x="124" y="80"/>
      <point x="130" y="80" type="curve"/>
      <point x="120" y="80" type="line"/>
    </contour>
    <contour>
      <point x="210" y="330" type="line"/>
      <point x="210" y="337"/>
      <point x="206" y="340"/>
      <point x="200" y="340" type="curve"/>
      <point x="210" y="340" type="line"/>
    </contour>
    <contour>
      <point x="120" y="-10" type="curve"/>
      <point x="120" y="0" type="line"/>
      <point x="120" y="-2"/>
      <point x="120" y="-6"/>
    </contour>
    <contour>
      <point x="120" y="-10" type="curve"/>
      <point x="120" y="0" type="line"/>
      <point x="130" y="0" type="line"/>
      <point x="124" y="0"/>
      <point x="120" y="-3"/>
    </contour>
  </outline>
</glyph>
<glyph name="x" format="2">
  <advance width="330"/>
  <unicode hex="0078"/>
  <outline>
    <contour>
      <point x="30" y="80" type="line"/>
      <point x="30" y="10" type="line" smooth="yes"/>
      <point x="30.0" y="4.0"/>
      <point x="34.0" y="0.0"/>
      <point x="40" y="0" type="curve" smooth="yes"/>
      <point x="107" y="0" type="line" smooth="yes"/>
      <point x="114.0" y="0.0"/>
      <point x="120.0" y="5.0"/>
      <point x="120" y="10" type="curve" smooth="yes"/>
      <point x="120" y="80" type="line"/>
      <point x="299" y="340" type="line"/>
      <point x="210" y="340" type="line"/>
    </contour>
    <contour>
      <point x="300" y="340" type="line"/>
      <point x="300" y="410" type="line" smooth="yes"/>
      <point x="300.0" y="416.0"/>
      <point x="296.0" y="420.0"/>
      <point x="290" y="420" type="curve" smooth="yes"/>
      <point x="220" y="420" type="line" smooth="yes"/>
      <point x="214.0" y="420.0"/>
      <point x="210.0" y="416.0"/>
      <point x="210" y="410" type="curve" smooth="yes"/>
      <point x="210" y="340" type="line"/>
    </contour>
    <contour>
      <point x="300" y="80" type="line"/>
      <point x="120" y="340" type="line"/>
      <point x="31" y="340" type="line"/>
      <point x="210" y="80" type="line"/>
      <point x="210" y="10" type="line" smooth="yes"/>
      <point x="210.0" y="5.0"/>
      <point x="216.0" y="0.0"/>
      <point x="223" y="0" type="curve" smooth="yes"/>
      <point x="290" y="0" type="line" smooth="yes"/>
      <point x="296.0" y="0.0"/>
      <point x="300.0" y="4.0"/>
      <point x="300" y="10" type="curve" smooth="yes"/>
    </contour>
    <contour>
      <point x="30" y="340" type="line"/>
      <point x="120" y="340" type="line"/>
      <point x="120" y="410" type="line" smooth="yes"/>
      <point x="120.0" y="416.0"/>
      <point x="116.0" y="420.0"/>
      <point x="110" y="420" type="curve" smooth="yes"/>
      <point x="40" y="420" type="line" smooth="yes"/>
      <point x="34.0" y="420.0"/>
      <point x="30.0" y="416.0"/>
      <point x="30" y="410" type="curve" smooth="yes"/>
    </contour>
  </outline>
</glyph>
<glyph name="#" format="2">
  <advance width="410"/>
  <outline>
    <contour>
      <point x="120" y="0" type="curve"/>
      <point x="130" y="0"/>
      <point x="120" y="0"/>
    </contour>
    <contour>
      <point x="90" y="590" type="line"/>
      <point x="40" y="10" type="line" smooth="yes"/>
      <point x="39" y="0"/>
      <point x="50" y="0"/>
      <point x="50" y="0" type="curve"/>
      <point x="120" y="0" type="line"/>
      <point x="120" y="0"/>
      <point x="129" y="0"/>
      <point x="130" y="10" type="curve" smooth="yes"/>
      <point x="180" y="590" type="line"/>
    </contour>
    <contour>
      <point x="170" y="600" type="curve"/>
      <point x="170" y="600"/>
      <point x="180" y="600"/>
    </contour>
    <contour>
      <point x="180" y="590" type="line"/>
      <point x="180" y="600"/>
      <point x="170" y="600"/>
      <point x="170" y="600" type="curve"/>
      <point x="100" y="600" type="line"/>
      <point x="100" y="600"/>
      <point x="90" y="600"/>
      <point x="90" y="590" type="curve"/>
    </contour>
    <contour>
      <point x="301" y="0" type="curve"/>
      <point x="311" y="0"/>
      <point x="301" y="0"/>
    </contour>
    <contour>
      <point x="271" y="590" type="line"/>
      <point x="221" y="10" type="line" smooth="yes"/>
      <point x="220" y="0"/>
      <point x="231" y="0"/>
      <point x="231" y="0" type="curve"/>
      <point x="301" y="0" type="line"/>
      <point x="301" y="0"/>
      <point x="310" y="0"/>
      <point x="311" y="10" type="curve" smooth="yes"/>
      <point x="361" y="590" type="line"/>
    </contour>
    <contour>
      <point x="351" y="600" type="curve"/>
      <point x="351" y="600"/>
      <point x="361" y="600"/>
    </contour>
    <contour>
      <point x="361" y="590" type="line"/>
      <point x="361" y="600"/>
      <point x="351" y="600"/>
      <point x="351" y="600" type="curve"/>
      <point x="281" y="600" type="line"/>
      <point x="281" y="600"/>
      <point x="271" y="600"/>
      <point x="271" y="590" type="curve"/>
    </contour>
    <contour>
      <point x="370" y="249" type="line" smooth="yes"/>
      <point x="370" y="255"/>
      <point x="366" y="260"/>
      <point x="360" y="260" type="curve" smooth="yes"/>
      <point x="30" y="260" type="line" smooth="yes"/>
      <point x="24" y="260"/>
      <point x="20" y="256"/>
      <point x="20" y="250" type="curve" smooth="yes"/>
      <point x="20" y="190" type="line" smooth="yes"/>
      <point x="20" y="184"/>
      <point x="24" y="180"/>
      <point x="30" y="180" type="curve" smooth="yes"/>
      <point x="360" y="180" type="line" smooth="yes"/>
      <point x="366" y="180"/>
      <point x="370" y="185"/>
      <point x="370" y="193" type="curve" smooth="yes"/>
    </contour>
    <contour>
      <point x="390" y="409" type="line" smooth="yes"/>
      <point x="390" y="415"/>
      <point x="386" y="420"/>
      <point x="380" y="420" type="curve" smooth="yes"/>
      <point x="50" y="420" type="line" smooth="yes"/>
      <point x="44" y="420"/>
      <point x="40" y="416"/>
      <point x="40" y="410" type="curve" smooth="yes"/>
      <point x="40" y="350" type="line" smooth="yes"/>
      <point x="40" y="344"/>
      <point x="44" y="340"/>
      <point x="50" y="340" type="curve" smooth="yes"/>
      <point x="380" y="340" type="line" smooth="yes"/>
      <point x="386" y="340"/>
      <point x="390" y="345"/>
      <point x="390" y="353" type="curve" smooth="yes"/>
    </contour>
  </outline>
</glyph>
<glyph name="-" format="2">
  <advance width="190"/>
  <outline>
    <contour>
      <point x="170" y="239" type="line" smooth="yes"/>
      <point x="170" y="245"/>
      <point x="166" y="250"/>
      <point x="160" y="250" type="curve" smooth="yes"/>
      <point x="30" y="250" type="line" smooth="yes"/>
      <point x="24" y="250"/>
      <point x="20" y="246"/>
      <point x="20" y="240" type="curve" smooth="yes"/>
      <point x="20" y="180" type="line" smooth="yes"/>
      <point x="20" y="174"/>
      <point x="24" y="170"/>
      <point x="30" y="170" type="curve" smooth="yes"/>
      <point x="160" y="170" type="line" smooth="yes"/>
      <point x="166" y="170"/>
      <point x="170" y="175"/>
      <point x="170" y="183" type="curve" smooth="yes"/>
    </contour>
  </outline>
</glyph>
<glyph name=";" format="2">
  <advance width="130"/>
  <outline>
    <contour>
      <point x="110" y="69" type="line" smooth="yes"/>
      <point x="110" y="75"/>
      <point x="106" y="80"/>
      <point x="100" y="80" type="curve" smooth="yes"/>
      <point x="30" y="80" type="line" smooth="yes"/>
      <point x="24" y="80"/>
      <point x="20" y="76"/>
      <point x="20" y="70" type="curve" smooth="yes"/>
      <point x="20" y="10" type="line" smooth="yes"/>
      <point x="20" y="4"/>
      <point x="24" y="0"/>
      <point x="30" y="0" type="curve" smooth="yes"/>
      <point x="60" y="0" type="line"/>
      <point x="60" y="-40" type="line"/>
      <point x="110" y="0" type="line"/>
    </contour>
    <contour>
      <point x="110" y="399" type="line" smooth="yes"/>
      <point x="110" y="405"/>
      <point x="106" y="410"/>
      <point x="100" y="410" type="curve" smooth="yes"/>
      <point x="30" y="410" type="line" smooth="yes"/>
      <point x="24" y="410"/>
      <point x="20" y="406"/>
      <point x="20" y="400" type="curve" smooth="yes"/>
      <point x="20" y="340" type="line" smooth="yes"/>
      <point x="20" y="334"/>
      <point x="24" y="330"/>
      <point x="30" y="330" type="curve" smooth="yes"/>
      <point x="100" y="330" type="line" smooth="yes"/>
      <point x="106" y="330"/>
      <point x="110" y="335"/>
      <point x="110" y="343" type="curve" smooth="yes"/>
    </contour>
  </outline>
</glyph>
<glyph name="." format="2">
  <advance width="150"/>
  <outline>
    <contour>
      <point x="120" y="69" type="line" smooth="yes"/>
      <point x="120" y="75"/>
      <point x="116" y="80"/>
      <point x="110" y="80" type="curve" smooth="yes"/>
      <point x="40" y="80" type="line" smooth="yes"/>
      <point x="34" y="80"/>
      <point x="30" y="76"/>
      <point x="30" y="70" type="curve" smooth="yes"/>
      <point x="30" y="10" type="line" smooth="yes"/>
      <point x="30" y="4"/>
      <point x="34" y="0"/>
      <point x="40" y="0" type="curve" smooth="yes"/>
      <point x="110" y="0" type="line" smooth="yes"/>
      <point x="116" y="0"/>
      <point x="120" y="5"/>
      <point x="120" y="13" type="curve" smooth="yes"/>
    </contour>
  </outline>
</glyph>
<glyph name=":" format="2">
  <advance width="140"/>
  <outline>
    <contour>
      <point x="120" y="69" type="line" smooth="yes"/>
      <point x="120.0" y="75.0"/>
      <point x="116.0" y="80.0"/>
      <point x="110" y="80" type="curve" smooth="yes"/>
      <point x="40" y="80" type="line" smooth="yes"/>
      <point x="34.0" y="80.0"/>
      <point x="30.0" y="76.0"/>
      <point x="30" y="70" type="curve" smooth="yes"/>
      <point x="30" y="10" type="line" smooth="yes"/>
      <point x="30.0" y="4.0"/>
      <point x="34.0" y="0.0"/>
      <point x="40" y="0" type="curve" smooth="yes"/>
      <point x="70" y="0" type="line" smooth="yes"/>
      <point x="110" y="0" type="line" smooth="yes"/>
      <point x="116.0" y="0.0"/>
      <point x="120.0" y="4.0"/>
      <point x="120" y="10" type="curve" smooth="yes"/>
    </contour>
    <contour>
      <point x="120" y="399" type="line" smooth="yes"/>
      <point x="120.0" y="405.0"/>
      <point x="116.0" y="410.0"/>
      <point x="110" y="410" type="curve" smooth="yes"/>
      <point x="40" y="410" type="line" smooth="yes"/>
      <point x="34.0" y="410.0"/>
      <point x="30.0" y="406.0"/>
      <point x="30" y="400" type="curve" smooth="yes"/>
      <point x="30" y="340" type="line" smooth="yes"/>
      <point x="30.0" y="334.0"/>
      <point x="34.0" y="330.0"/>
      <point x="40" y="330" type="curve" smooth="yes"/>
      <point x="110" y="330" type="line" smooth="yes"/>
      <point x="116.0" y="330.0"/>
      <point x="120.0" y="335.0"/>
      <point x="120" y="343" type="curve" smooth="yes"/>
    </contour>
  </outline>
</glyph>
